{
  "accessors": [
    {
      "bufferView": 2,
      "componentType": 5126,
      "count": 550,
      "max": [
        0.596833348274231,
        0.18289999663829803,
        0.16390462219715118
      ],
      "min": [
        -0.596833348274231,
        -0.18289999663829803,
        0.00013696914538741112
      ],
      "type": "VEC3"
    },
    {
      "bufferView": 2,
      "byteOffset": 6600,
      "componentType": 5126,
      "count": 550,
      "type": "VEC3"
    },
    {
      "bufferView": 3,
      "componentType": 5126,
      "count": 550,
      "type": "VEC4"
    },
    {
      "bufferView": 1,
      "componentType": 5126,
      "count": 550,
      "type": "VEC2"
    },
    {
      "bufferView": 1,
      "byteOffset": 4400,
      "componentType": 5126,
      "count": 550,
      "type": "VEC2"
    },
    {
      "bufferView": 1,
      "byteOffset": 8800,
      "componentType": 5126,
      "count": 550,
      "type": "VEC2"
    },
    {
      "bufferView": 1,
      "byteOffset": 13200,
      "componentType": 5126,
      "count": 550,
      "type": "VEC2"
    },
    {
      "bufferView": 1,
      "byteOffset": 17600,
      "componentType": 5126,
      "count": 550,
      "type": "VEC2"
    },
    {
      "bufferView": 0,
      "componentType": 5125,
      "count": 2244,
      "type": "SCALAR"
    },
    {
      "bufferView": 2,
      "byteOffset": 13200,
      "componentType": 5126,
      "count": 984,
      "max": [
        0.3094307482242584,
        0.2907237112522125,
        0.13172167539596558
      ],
      "min": [
        -0.3070937693119049,
        -0.09855645149946213,
        -0.08316580206155777
      ],
      "type": "VEC3"
    },
    {
      "bufferView": 2,
      "byteOffset": 25008,
      "componentType": 5126,
      "count": 984,
      "type": "VEC3"
    },
    {
      "bufferView": 3,
      "byteOffset": 8800,
      "componentType": 5126,
      "count": 984,
      "type": "VEC4"
    },
    {
      "bufferView": 1,
      "byteOffset": 22000,
      "componentType": 5126,
      "count": 984,
      "type": "VEC2"
    },
    {
      "bufferView": 1,
      "byteOffset": 29872,
      "componentType": 5126,
      "count": 984,
      "type": "VEC2"
    },
    {
      "bufferView": 1,
      "byteOffset": 37744,
      "componentType": 5126,
      "count": 984,
      "type": "VEC2"
    },
    {
      "bufferView": 1,
      "byteOffset": 45616,
      "componentType": 5126,
      "count": 984,
      "type": "VEC2"
    },
    {
      "bufferView": 1,
      "byteOffset": 53488,
      "componentType": 5126,
      "count": 984,
      "type": "VEC2"
    },
    {
      "bufferView": 0,
      "byteOffset": 8976,
      "componentType": 5125,
      "count": 4608,
      "type": "SCALAR"
    },
    {
      "bufferView": 2,
      "byteOffset": 36816,
      "componentType": 5126,
      "count": 1059,
      "max": [
        0.30826225876808167,
        0.37400153279304504,
        0.01815732754766941
      ],
      "min": [
        -0.30826225876808167,
        -0.015642620623111725,
        -0.19673015177249908
      ],
      "type": "VEC3"
    },
    {
      "bufferView": 2,
      "byteOffset": 49524,
      "componentType": 5126,
      "count": 1059,
      "type": "VEC3"
    },
    {
      "bufferView": 3,
      "byteOffset": 24544,
      "componentType": 5126,
      "count": 1059,
      "type": "VEC4"
    },
    {
      "bufferView": 1,
      "byteOffset": 61360,
      "componentType": 5126,
      "count": 1059,
      "type": "VEC2"
    },
    {
      "bufferView": 1,
      "byteOffset": 69832,
      "componentType": 5126,
      "count": 1059,
      "type": "VEC2"
    },
    {
      "bufferView": 1,
      "byteOffset": 78304,
      "componentType": 5126,
      "count": 1059,
      "type": "VEC2"
    },
    {
      "bufferView": 1,
      "byteOffset": 86776,
      "componentType": 5126,
      "count": 1059,
      "type": "VEC2"
    },
    {
      "bufferView": 0,
      "byteOffset": 27408,
      "componentType": 5125,
      "count": 4920,
      "type": "SCALAR"
    },
    {
      "bufferView": 2,
      "byteOffset": 62232,
      "componentType": 5126,
      "count": 522,
      "max": [
        0.37355145812034607,
        0.18289999663829803,
        0.013599321246147156
      ],
      "min": [
        -0.37355145812034607,
        -0.18289999663829803,
        -0.010417327284812927
      ],
      "type": "VEC3"
    },
    {
      "bufferView": 2,
      "byteOffset": 68496,
      "componentType": 5126,
      "count": 522,
      "type": "VEC3"
    },
    {
      "bufferView": 3,
      "byteOffset": 41488,
      "componentType": 5126,
      "count": 522,
      "type": "VEC4"
    },
    {
      "bufferView": 1,
      "byteOffset": 95248,
      "componentType": 5126,
      "count": 522,
      "type": "VEC2"
    },
    {
      "bufferView": 1,
      "byteOffset": 99424,
      "componentType": 5126,
      "count": 522,
      "type": "VEC2"
    },
    {
      "bufferView": 1,
      "byteOffset": 103600,
      "componentType": 5126,
      "count": 522,
      "type": "VEC2"
    },
    {
      "bufferView": 1,
      "byteOffset": 107776,
      "componentType": 5126,
      "count": 522,
      "type": "VEC2"
    },
    {
      "bufferView": 0,
      "byteOffset": 47088,
      "componentType": 5125,
      "count": 2136,
      "type": "SCALAR"
    }
  ],
  "asset": {
    "generator": "fab-model-conversion",
    "version": "2.0"
  },
  "bufferViews": [
    {
      "buffer": 0,
      "byteLength": 55632,
      "target": 34963
    },
    {
      "buffer": 0,
      "byteLength": 111952,
      "byteOffset": 55632,
      "byteStride": 8,
      "target": 34962
    },
    {
      "buffer": 0,
      "byteLength": 74760,
      "byteOffset": 167584,
      "byteStride": 12,
      "target": 34962
    },
    {
      "buffer": 0,
      "byteLength": 49840,
      "byteOffset": 242344,
      "byteStride": 16,
      "target": 34962
    }
  ],
  "buffers": [
    {
      "byteLength": 292184,
      "uri": "scene.bin"
    }
  ],
  "images": [
    {
      "uri": "textures/T_wide_monitor_baseColor.png"
    },
    {
      "uri": "textures/T_wide_monitor_metallicRoughness.png"
    },
    {
      "uri": "textures/T_wide_monitor_emissive.png"
    },
    {
      "uri": "textures/T_wide_monitor_normal.png"
    },
    {
      "uri": "textures/T_standard_monitor_baseColor.png"
    },
    {
      "uri": "textures/T_standard_monitor_metallicRoughness.png"
    },
    {
      "uri": "textures/T_standard_monitor_normal.png"
    }
  ],
  "materials": [
    {
      "doubleSided": true,
      "emissiveFactor": [
        1.0,
        1.0,
        1.0
      ],
      "emissiveTexture": {
        "index": 2
      },
      "name": "T_wide_monitor",
      "normalTexture": {
        "index": 3
      },
      "pbrMetallicRoughness": {
        "baseColorTexture": {
          "index": 0
        },
        "metallicRoughnessTexture": {
          "index": 1
        }
      }
    },
    {
      "doubleSided": true,
      "name": "T_standard_monitor",
      "normalTexture": {
        "index": 6
      },
      "pbrMetallicRoughness": {
        "baseColorTexture": {
          "index": 4
        },
        "metallicRoughnessTexture": {
          "index": 5
        }
      }
    }
  ],
  "meshes": [
    {
      "name": "Object_0",
      "primitives": [
        {
          "attributes": {
            "NORMAL": 1,
            "POSITION": 0,
            "TANGENT": 2,
            "TEXCOORD_0": 3,
            "TEXCOORD_1": 4,
            "TEXCOORD_2": 5,
            "TEXCOORD_3": 6,
            "TEXCOORD_4": 7
          },
          "indices": 8,
          "material": 0,
          "mode": 4
        }
      ]
    },
    {
      "name": "Object_1",
      "primitives": [
        {
          "attributes": {
            "NORMAL": 10,
            "POSITION": 9,
            "TANGENT": 11,
            "TEXCOORD_0": 12,
            "TEXCOORD_1": 13,
            "TEXCOORD_2": 14,
            "TEXCOORD_3": 15,
            "TEXCOORD_4": 16
          },
          "indices": 17,
          "material": 0,
          "mode": 4
        }
      ]
    },
    {
      "name": "Object_2",
      "primitives": [
        {
          "attributes": {
            "NORMAL": 19,
            "POSITION": 18,
            "TANGENT": 20,
            "TEXCOORD_0": 21,
            "TEXCOORD_1": 22,
            "TEXCOORD_2": 23,
            "TEXCOORD_3": 24
          },
          "indices": 25,
          "material": 1,
          "mode": 4
        }
      ]
    },
    {
      "name": "Object_3",
      "primitives": [
        {
          "attributes": {
            "NORMAL": 27,
            "POSITION": 26,
            "TANGENT": 28,
            "TEXCOORD_0": 29,
            "TEXCOORD_1": 30,
            "TEXCOORD_2": 31,
            "TEXCOORD_3": 32
          },
          "indices": 33,
          "material": 1,
          "mode": 4
        }
      ]
    }
  ],
  "nodes": [
    {
      "children": [
        1
      ],
      "matrix": [
        1.0,
        0.0,
        0.0,
        0.0,
        0.0,
        2.220446049250313e-16,
        -1.0,
        0.0,
        0.0,
        1.0,
        2.220446049250313e-16,
        0.0,
        0.0,
        0.0,
        0.0,
        1.0
      ],
      "name": "Sketchfab_model"
    },
    {
      "children": [
        2
      ],
      "name": "root"
    },
    {
      "children": [
        3,
        5,
        7,
        9
      ],
      "matrix": [
        1.0,
        0.0,
        0.0,
        0.0,
        0.0,
        2.220446049250313e-16,
        1.0,
        0.0,
        0.0,
        -1.0,
        2.220446049250313e-16,
        0.0,
        0.0,
        0.0,
        0.0,
        1.0
      ],
      "name": "GLTF_SceneRootNode"
    },
    {
      "children": [
        4
      ],
      "matrix": [
        1.0,
        0.0,
        -0.0,
        0.0,
        -0.0,
        0.9848077556779534,
        -0.17364816254873622,
        0.0,
        0.0,
        0.17364816254873622,
        0.9848077556779534,
        0.0,
        -0.13918909430503845,
        0.27878451347351074,
        -0.08287690579891205,
        1.0
      ],
      "name": "SM_widescreen_monitor_1"
    },
    {
      "mesh": 0,
      "name": "Object_4"
    },
    {
      "children": [
        6
      ],
      "matrix": [
        1.0,
        0.0,
        0.0,
        0.0,
        0.0,
        1.0,
        0.0,
        0.0,
        0.0,
        0.0,
        1.0,
        0.0,
        -0.1403575837612152,
        0.09594125300645828,
        -0.018903449177742004,
        1.0
      ],
      "name": "SM_widescreen_stand_2"
    },
    {
      "mesh": 1,
      "name": "Object_6"
    },
    {
      "children": [
        8
      ],
      "matrix": [
        1.0,
        0.0,
        0.0,
        0.0,
        0.0,
        1.0,
        0.0,
        0.0,
        0.0,
        0.0,
        1.0,
        0.0,
        0.916975200176239,
        0.017738640308380127,
        0.10785722732543945,
        1.0
      ],
      "name": "SM_standard_monitor_stand_4"
    },
    {
      "mesh": 2,
      "name": "Object_8"
    },
    {
      "children": [
        10
      ],
      "matrix": [
        1.0,
        0.0,
        0.0,
        0.0,
        0.0,
        1.0,
        0.0,
        0.0,
        0.0,
        0.0,
        1.0,
        0.0,
        0.916975200176239,
        0.28508132696151733,
        0.007945552468299866,
        1.0
      ],
      "name": "SM_standard_monitor_5"
    },
    {
      "mesh": 3,
      "name": "Object_10"
    }
  ],
  "samplers": [
    {
      "magFilter": 9729,
      "minFilter": 9987,
      "wrapS": 10497,
      "wrapT": 10497
    }
  ],
  "scene": 0,
  "scenes": [
    {
      "name": "Sketchfab_Scene",
      "nodes": [
        0
      ]
    }
  ],
  "textures": [
    {
      "sampler": 0,
      "source": 0
    },
    {
      "sampler": 0,
      "source": 1
    },
    {
      "sampler": 0,
      "source": 2
    },
    {
      "sampler": 0,
      "source": 3
    },
    {
      "sampler": 0,
      "source": 4
    },
    {
      "sampler": 0,
      "source": 5
    },
    {
      "sampler": 0,
      "source": 6
    }
  ]
}
